<svg width="647" height="60" viewBox="0 0 647 60" fill="none" xmlns="http://www.w3.org/2000/svg">
<rect width="647" height="60" fill="white"/>
<path d="M42.692 25.684C42.3467 25.5067 41.9687 25.3527 41.558 25.222C41.1473 25.0913 40.7507 25.026 40.368 25.026C39.8173 25.026 39.3787 25.152 39.052 25.404C38.7347 25.656 38.576 25.9967 38.576 26.426C38.576 26.734 38.6787 26.9953 38.884 27.21C39.0987 27.4247 39.3693 27.616 39.696 27.784C40.032 27.9427 40.3867 28.092 40.76 28.232C41.18 28.3907 41.586 28.582 41.978 28.806C42.37 29.03 42.692 29.3333 42.944 29.716C43.2053 30.0893 43.336 30.5933 43.336 31.228C43.336 31.7693 43.2007 32.2593 42.93 32.698C42.6593 33.1273 42.2767 33.4727 41.782 33.734C41.2873 33.986 40.6993 34.112 40.018 34.112C39.346 34.112 38.7207 34.0047 38.142 33.79C37.5727 33.5753 37.0873 33.328 36.686 33.048L37.288 31.97C37.6147 32.222 38.016 32.4413 38.492 32.628C38.9773 32.8147 39.4393 32.908 39.878 32.908C40.2047 32.908 40.522 32.852 40.83 32.74C41.1473 32.628 41.4087 32.4507 41.614 32.208C41.8193 31.956 41.922 31.634 41.922 31.242C41.922 30.906 41.8287 30.6213 41.642 30.388C41.4553 30.1547 41.2127 29.9587 40.914 29.8C40.6247 29.632 40.3073 29.4827 39.962 29.352C39.6447 29.24 39.3227 29.1093 38.996 28.96C38.6693 28.8107 38.366 28.6333 38.086 28.428C37.8153 28.2133 37.596 27.952 37.428 27.644C37.26 27.336 37.176 26.9627 37.176 26.524C37.176 25.992 37.302 25.53 37.554 25.138C37.8153 24.7367 38.17 24.424 38.618 24.2C39.066 23.9667 39.584 23.8407 40.172 23.822C40.816 23.822 41.3853 23.9013 41.88 24.06C42.384 24.2187 42.8273 24.41 43.21 24.634L42.692 25.684ZM50.7704 34.14C50.1171 34.14 49.5478 34.0093 49.0624 33.748C48.5864 33.4773 48.2178 33.1087 47.9564 32.642C47.7044 32.1753 47.5784 31.648 47.5784 31.06C47.5784 30.4907 47.7184 29.9727 47.9984 29.506C48.2878 29.03 48.6751 28.6567 49.1604 28.386C49.6551 28.106 50.2011 27.966 50.7984 27.966C51.5638 27.966 52.1984 28.19 52.7024 28.638C53.2064 29.086 53.5518 29.702 53.7384 30.486L49.1464 32.096C49.3051 32.3853 49.5291 32.614 49.8184 32.782C50.1078 32.9407 50.4344 33.02 50.7984 33.02C51.0598 33.02 51.3071 32.9733 51.5404 32.88C51.7738 32.7867 51.9978 32.6653 52.2124 32.516L52.8144 33.482C52.5158 33.678 52.1844 33.8367 51.8204 33.958C51.4658 34.0793 51.1158 34.14 50.7704 34.14ZM48.8664 30.99C48.8571 31.102 48.8618 31.2093 48.8804 31.312L52.2544 30.066C52.1238 29.786 51.9324 29.5387 51.6804 29.324C51.4378 29.1093 51.1111 29.002 50.7004 29.002C50.1684 29.002 49.7298 29.1887 49.3844 29.562C49.0391 29.9353 48.8664 30.4113 48.8664 30.99ZM60.5779 34.14C60.0272 34.14 59.5279 34.0233 59.0799 33.79C58.6412 33.5567 58.2912 33.216 58.0299 32.768C57.7779 32.3107 57.6519 31.7553 57.6519 31.102C57.6519 30.4487 57.7825 29.8887 58.0439 29.422C58.3145 28.9553 58.6739 28.596 59.1219 28.344C59.5792 28.092 60.0785 27.966 60.6199 27.966C61.1425 27.966 61.5859 28.078 61.9499 28.302C62.3139 28.526 62.5985 28.7967 62.8039 29.114L62.9019 28.204H64.1059V34H62.8039V33.048C62.6919 33.1973 62.5285 33.356 62.3139 33.524C62.1085 33.692 61.8565 33.8367 61.5579 33.958C61.2685 34.0793 60.9419 34.14 60.5779 34.14ZM60.9279 33.062C61.4039 33.062 61.8099 32.9313 62.1459 32.67C62.4819 32.3993 62.7012 32.0353 62.8039 31.578V30.43C62.6919 30.0287 62.4585 29.6973 62.1039 29.436C61.7492 29.1747 61.3432 29.044 60.8859 29.044C60.5312 29.044 60.2092 29.128 59.9199 29.296C59.6305 29.464 59.3972 29.6973 59.2199 29.996C59.0519 30.2947 58.9679 30.64 58.9679 31.032C58.9679 31.4147 59.0565 31.76 59.2339 32.068C59.4112 32.3667 59.6492 32.6093 59.9479 32.796C60.2465 32.9733 60.5732 33.062 60.9279 33.062ZM70.3347 28.204L70.4327 29.562C70.5913 29.2353 70.8107 28.9553 71.0907 28.722C71.3707 28.4793 71.66 28.2973 71.9587 28.176C72.2667 28.0453 72.5327 27.9753 72.7567 27.966L72.7007 29.268C72.262 29.2493 71.8747 29.338 71.5387 29.534C71.2027 29.7207 70.9413 29.9773 70.7547 30.304C70.568 30.6307 70.4747 30.9807 70.4747 31.354V34H69.1727V28.204H70.3347ZM81.6943 33.454C81.4329 33.6687 81.1203 33.8367 80.7563 33.958C80.3923 34.0793 80.0283 34.14 79.6643 34.14C79.0389 34.14 78.4836 34.014 77.9983 33.762C77.5223 33.51 77.1489 33.1553 76.8783 32.698C76.6169 32.2407 76.4863 31.704 76.4863 31.088C76.4863 30.472 76.6263 29.94 76.9063 29.492C77.1956 29.0347 77.5689 28.68 78.0263 28.428C78.4929 28.176 78.9969 28.05 79.5383 28.05C80.0049 28.05 80.4203 28.1153 80.7843 28.246C81.1483 28.3767 81.4656 28.554 81.7363 28.778L81.0783 29.632C80.9103 29.5107 80.7049 29.3987 80.4623 29.296C80.2196 29.184 79.9489 29.128 79.6503 29.128C79.3049 29.128 78.9923 29.2167 78.7123 29.394C78.4323 29.562 78.2083 29.7953 78.0403 30.094C77.8723 30.3833 77.7883 30.7147 77.7883 31.088C77.7883 31.452 77.8723 31.7833 78.0403 32.082C78.2083 32.3807 78.4416 32.6187 78.7403 32.796C79.0389 32.9733 79.3843 33.062 79.7763 33.062C80.0189 33.062 80.2429 33.0247 80.4483 32.95C80.6629 32.8753 80.8543 32.7727 81.0223 32.642L81.6943 33.454ZM86.175 34V23.15H87.449V29.254C87.6543 28.8807 87.9577 28.5773 88.359 28.344C88.7603 28.1013 89.2317 27.98 89.773 27.98C90.3143 27.98 90.7577 28.1433 91.103 28.47C91.4577 28.7873 91.6443 29.2027 91.663 29.716V34H90.347V30.164C90.3283 29.856 90.2303 29.604 90.053 29.408C89.885 29.212 89.619 29.1093 89.255 29.1C88.919 29.1 88.6157 29.198 88.345 29.394C88.0837 29.5807 87.8737 29.8373 87.715 30.164C87.5563 30.4907 87.477 30.864 87.477 31.284V34H86.175ZM106.953 30.626L103.201 23.878H104.881L107.667 29.086L110.439 23.878H112.105L108.311 30.626V34H106.953V30.626ZM114.442 31.046C114.442 30.4673 114.577 29.9447 114.848 29.478C115.128 29.0113 115.511 28.6427 115.996 28.372C116.481 28.1013 117.037 27.966 117.662 27.966C118.287 27.966 118.838 28.1013 119.314 28.372C119.79 28.6427 120.159 29.0113 120.42 29.478C120.691 29.9447 120.826 30.4673 120.826 31.046C120.826 31.6247 120.691 32.1473 120.42 32.614C120.159 33.0807 119.785 33.454 119.3 33.734C118.824 34.0047 118.269 34.14 117.634 34.14C117.018 34.14 116.467 34.014 115.982 33.762C115.506 33.51 115.128 33.1507 114.848 32.684C114.577 32.2173 114.442 31.6713 114.442 31.046ZM115.758 31.06C115.758 31.4333 115.837 31.774 115.996 32.082C116.164 32.3807 116.388 32.6187 116.668 32.796C116.948 32.9733 117.265 33.062 117.62 33.062C117.984 33.062 118.306 32.9733 118.586 32.796C118.866 32.6187 119.085 32.3807 119.244 32.082C119.412 31.774 119.496 31.4333 119.496 31.06C119.496 30.6867 119.412 30.3507 119.244 30.052C119.085 29.744 118.866 29.5013 118.586 29.324C118.306 29.1373 117.984 29.044 117.62 29.044C117.265 29.044 116.943 29.1373 116.654 29.324C116.374 29.5107 116.155 29.758 115.996 30.066C115.837 30.3647 115.758 30.696 115.758 31.06ZM127.223 34.224C126.691 34.224 126.252 34.0653 125.907 33.748C125.562 33.4213 125.384 33.0013 125.375 32.488V28.204H126.677V32.026C126.696 32.3433 126.789 32.6 126.957 32.796C127.125 32.992 127.386 33.0947 127.741 33.104C128.058 33.104 128.348 33.0107 128.609 32.824C128.87 32.628 129.076 32.3667 129.225 32.04C129.384 31.704 129.463 31.326 129.463 30.906V28.204H130.765V34H129.589L129.491 32.908C129.304 33.2907 129.006 33.608 128.595 33.86C128.194 34.1027 127.736 34.224 127.223 34.224ZM136.993 28.204L137.091 29.562C137.25 29.2353 137.469 28.9553 137.749 28.722C138.029 28.4793 138.319 28.2973 138.617 28.176C138.925 28.0453 139.191 27.9753 139.415 27.966L139.359 29.268C138.921 29.2493 138.533 29.338 138.197 29.534C137.861 29.7207 137.6 29.9773 137.413 30.304C137.227 30.6307 137.133 30.9807 137.133 31.354V34H135.831V28.204H136.993ZM150.705 23.878H157.425V25.18H154.709V34H153.351V25.18H150.705V23.878ZM162.401 28.204L162.499 29.562C162.658 29.2353 162.877 28.9553 163.157 28.722C163.437 28.4793 163.726 28.2973 164.025 28.176C164.333 28.0453 164.599 27.9753 164.823 27.966L164.767 29.268C164.328 29.2493 163.941 29.338 163.605 29.534C163.269 29.7207 163.008 29.9773 162.821 30.304C162.634 30.6307 162.541 30.9807 162.541 31.354V34H161.239V28.204H162.401ZM171.588 34.14C171.037 34.14 170.538 34.0233 170.09 33.79C169.651 33.5567 169.301 33.216 169.04 32.768C168.788 32.3107 168.662 31.7553 168.662 31.102C168.662 30.4487 168.793 29.8887 169.054 29.422C169.325 28.9553 169.684 28.596 170.132 28.344C170.589 28.092 171.089 27.966 171.63 27.966C172.153 27.966 172.596 28.078 172.96 28.302C173.324 28.526 173.609 28.7967 173.814 29.114L173.912 28.204H175.116V34H173.814V33.048C173.702 33.1973 173.539 33.356 173.324 33.524C173.119 33.692 172.867 33.8367 172.568 33.958C172.279 34.0793 171.952 34.14 171.588 34.14ZM171.938 33.062C172.414 33.062 172.82 32.9313 173.156 32.67C173.492 32.3993 173.711 32.0353 173.814 31.578V30.43C173.702 30.0287 173.469 29.6973 173.114 29.436C172.759 29.1747 172.353 29.044 171.896 29.044C171.541 29.044 171.219 29.128 170.93 29.296C170.641 29.464 170.407 29.6973 170.23 29.996C170.062 30.2947 169.978 30.64 169.978 31.032C169.978 31.4147 170.067 31.76 170.244 32.068C170.421 32.3667 170.659 32.6093 170.958 32.796C171.257 32.9733 171.583 33.062 171.938 33.062ZM182.535 34.168L179.315 28.204H180.869L182.619 31.914L184.243 28.204H185.699L182.605 34.168H182.535ZM192.452 34.14C191.799 34.14 191.229 34.0093 190.744 33.748C190.268 33.4773 189.899 33.1087 189.638 32.642C189.386 32.1753 189.26 31.648 189.26 31.06C189.26 30.4907 189.4 29.9727 189.68 29.506C189.969 29.03 190.357 28.6567 190.842 28.386C191.337 28.106 191.883 27.966 192.48 27.966C193.245 27.966 193.88 28.19 194.384 28.638C194.888 29.086 195.233 29.702 195.42 30.486L190.828 32.096C190.987 32.3853 191.211 32.614 191.5 32.782C191.789 32.9407 192.116 33.02 192.48 33.02C192.741 33.02 192.989 32.9733 193.222 32.88C193.455 32.7867 193.679 32.6653 193.894 32.516L194.496 33.482C194.197 33.678 193.866 33.8367 193.502 33.958C193.147 34.0793 192.797 34.14 192.452 34.14ZM190.548 30.99C190.539 31.102 190.543 31.2093 190.562 31.312L193.936 30.066C193.805 29.786 193.614 29.5387 193.362 29.324C193.119 29.1093 192.793 29.002 192.382 29.002C191.85 29.002 191.411 29.1887 191.066 29.562C190.721 29.9353 190.548 30.4113 190.548 30.99ZM199.838 23.15H201.14V34H199.838V23.15ZM213.758 34V23.878H216.53C217.528 23.878 218.378 24.032 219.078 24.34C219.778 24.6387 220.342 25.04 220.772 25.544C221.21 26.048 221.528 26.608 221.724 27.224C221.929 27.8307 222.032 28.442 222.032 29.058C222.032 29.814 221.896 30.5 221.626 31.116C221.355 31.7227 220.986 32.2407 220.52 32.67C220.053 33.0993 219.516 33.4307 218.91 33.664C218.312 33.888 217.682 34 217.02 34H213.758ZM215.116 32.684H216.754C217.491 32.684 218.149 32.5393 218.728 32.25C219.316 31.9607 219.778 31.5407 220.114 30.99C220.45 30.43 220.618 29.7533 220.618 28.96C220.618 28.1387 220.44 27.448 220.086 26.888C219.74 26.328 219.278 25.9033 218.7 25.614C218.13 25.3247 217.524 25.18 216.88 25.18H215.116V32.684ZM229.478 34.14C228.825 34.14 228.256 34.0093 227.77 33.748C227.294 33.4773 226.926 33.1087 226.664 32.642C226.412 32.1753 226.286 31.648 226.286 31.06C226.286 30.4907 226.426 29.9727 226.706 29.506C226.996 29.03 227.383 28.6567 227.868 28.386C228.363 28.106 228.909 27.966 229.506 27.966C230.272 27.966 230.906 28.19 231.41 28.638C231.914 29.086 232.26 29.702 232.446 30.486L227.854 32.096C228.013 32.3853 228.237 32.614 228.526 32.782C228.816 32.9407 229.142 33.02 229.506 33.02C229.768 33.02 230.015 32.9733 230.248 32.88C230.482 32.7867 230.706 32.6653 230.92 32.516L231.522 33.482C231.224 33.678 230.892 33.8367 230.528 33.958C230.174 34.0793 229.824 34.14 229.478 34.14ZM227.574 30.99C227.565 31.102 227.57 31.2093 227.588 31.312L230.962 30.066C230.832 29.786 230.64 29.5387 230.388 29.324C230.146 29.1093 229.819 29.002 229.408 29.002C228.876 29.002 228.438 29.1887 228.092 29.562C227.747 29.9353 227.574 30.4113 227.574 30.99ZM238.502 34.112C238.082 34.112 237.676 34.042 237.284 33.902C236.901 33.7527 236.584 33.5333 236.332 33.244L236.892 32.488C237.125 32.7213 237.372 32.8987 237.634 33.02C237.895 33.132 238.147 33.188 238.39 33.188C238.67 33.188 238.912 33.132 239.118 33.02C239.332 32.908 239.44 32.7167 239.44 32.446C239.44 32.2407 239.37 32.0773 239.23 31.956C239.099 31.8347 238.926 31.7413 238.712 31.676C238.506 31.6013 238.292 31.5267 238.068 31.452C237.078 31.1347 236.584 30.57 236.584 29.758C236.584 29.4593 236.658 29.1747 236.808 28.904C236.966 28.6333 237.195 28.414 237.494 28.246C237.802 28.078 238.18 27.994 238.628 27.994C239.029 27.994 239.388 28.0453 239.706 28.148C240.023 28.2507 240.322 28.414 240.602 28.638L240.084 29.436C239.916 29.268 239.715 29.142 239.482 29.058C239.258 28.9647 239.052 28.9133 238.866 28.904C238.614 28.904 238.39 28.9647 238.194 29.086C238.007 29.2073 237.914 29.3753 237.914 29.59C237.904 29.786 237.965 29.9447 238.096 30.066C238.226 30.178 238.394 30.2713 238.6 30.346C238.814 30.4207 239.029 30.4907 239.244 30.556C239.664 30.696 240.018 30.8873 240.308 31.13C240.606 31.3727 240.756 31.7273 240.756 32.194C240.756 32.7167 240.569 33.1693 240.196 33.552C239.822 33.9253 239.258 34.112 238.502 34.112ZM245.939 25.656H247.255V28.218H248.837V29.254H247.255V34H245.939V29.254H244.875V28.218H245.939V25.656ZM253.223 28.204H254.525V34H253.223V28.204ZM253.125 26.118C253.125 25.9033 253.205 25.7307 253.363 25.6C253.531 25.46 253.713 25.39 253.909 25.39C254.105 25.39 254.283 25.46 254.441 25.6C254.6 25.7307 254.679 25.9033 254.679 26.118C254.679 26.3327 254.6 26.51 254.441 26.65C254.283 26.7807 254.105 26.846 253.909 26.846C253.713 26.846 253.531 26.7807 253.363 26.65C253.205 26.51 253.125 26.3327 253.125 26.118ZM260.768 28.204L260.852 29.324C261.048 28.9133 261.351 28.5867 261.762 28.344C262.172 28.1013 262.648 27.98 263.19 27.98C263.731 27.98 264.174 28.1433 264.52 28.47C264.874 28.7873 265.061 29.2027 265.08 29.716V34H263.764V30.164C263.745 29.856 263.647 29.604 263.47 29.408C263.302 29.212 263.036 29.1093 262.672 29.1C262.168 29.1 261.743 29.3053 261.398 29.716C261.062 30.1173 260.894 30.64 260.894 31.284V34H259.592V28.204H260.768ZM272.552 34.14C272.001 34.14 271.502 34.0233 271.054 33.79C270.615 33.5567 270.265 33.216 270.004 32.768C269.752 32.3107 269.626 31.7553 269.626 31.102C269.626 30.4487 269.757 29.8887 270.018 29.422C270.289 28.9553 270.648 28.596 271.096 28.344C271.553 28.092 272.053 27.966 272.594 27.966C273.117 27.966 273.56 28.078 273.924 28.302C274.288 28.526 274.573 28.7967 274.778 29.114L274.876 28.204H276.08V34H274.778V33.048C274.666 33.1973 274.503 33.356 274.288 33.524C274.083 33.692 273.831 33.8367 273.532 33.958C273.243 34.0793 272.916 34.14 272.552 34.14ZM272.902 33.062C273.378 33.062 273.784 32.9313 274.12 32.67C274.456 32.3993 274.675 32.0353 274.778 31.578V30.43C274.666 30.0287 274.433 29.6973 274.078 29.436C273.723 29.1747 273.317 29.044 272.86 29.044C272.505 29.044 272.183 29.128 271.894 29.296C271.605 29.464 271.371 29.6973 271.194 29.996C271.026 30.2947 270.942 30.64 270.942 31.032C270.942 31.4147 271.031 31.76 271.208 32.068C271.385 32.3667 271.623 32.6093 271.922 32.796C272.221 32.9733 272.547 33.062 272.902 33.062ZM281.707 25.656H283.023V28.218H284.605V29.254H283.023V34H281.707V29.254H280.643V28.218H281.707V25.656ZM288.992 28.204H290.294V34H288.992V28.204ZM288.894 26.118C288.894 25.9033 288.973 25.7307 289.132 25.6C289.3 25.46 289.482 25.39 289.678 25.39C289.874 25.39 290.051 25.46 290.21 25.6C290.368 25.7307 290.448 25.9033 290.448 26.118C290.448 26.3327 290.368 26.51 290.21 26.65C290.051 26.7807 289.874 26.846 289.678 26.846C289.482 26.846 289.3 26.7807 289.132 26.65C288.973 26.51 288.894 26.3327 288.894 26.118ZM294.856 31.046C294.856 30.4673 294.991 29.9447 295.262 29.478C295.542 29.0113 295.925 28.6427 296.41 28.372C296.895 28.1013 297.451 27.966 298.076 27.966C298.701 27.966 299.252 28.1013 299.728 28.372C300.204 28.6427 300.573 29.0113 300.834 29.478C301.105 29.9447 301.24 30.4673 301.24 31.046C301.24 31.6247 301.105 32.1473 300.834 32.614C300.573 33.0807 300.199 33.454 299.714 33.734C299.238 34.0047 298.683 34.14 298.048 34.14C297.432 34.14 296.881 34.014 296.396 33.762C295.92 33.51 295.542 33.1507 295.262 32.684C294.991 32.2173 294.856 31.6713 294.856 31.046ZM296.172 31.06C296.172 31.4333 296.251 31.774 296.41 32.082C296.578 32.3807 296.802 32.6187 297.082 32.796C297.362 32.9733 297.679 33.062 298.034 33.062C298.398 33.062 298.72 32.9733 299 32.796C299.28 32.6187 299.499 32.3807 299.658 32.082C299.826 31.774 299.91 31.4333 299.91 31.06C299.91 30.6867 299.826 30.3507 299.658 30.052C299.499 29.744 299.28 29.5013 299 29.324C298.72 29.1373 298.398 29.044 298.034 29.044C297.679 29.044 297.357 29.1373 297.068 29.324C296.788 29.5107 296.569 29.758 296.41 30.066C296.251 30.3647 296.172 30.696 296.172 31.06ZM306.965 28.204L307.049 29.324C307.245 28.9133 307.548 28.5867 307.959 28.344C308.37 28.1013 308.846 27.98 309.387 27.98C309.928 27.98 310.372 28.1433 310.717 28.47C311.072 28.7873 311.258 29.2027 311.277 29.716V34H309.961V30.164C309.942 29.856 309.844 29.604 309.667 29.408C309.499 29.212 309.233 29.1093 308.869 29.1C308.365 29.1 307.94 29.3053 307.595 29.716C307.259 30.1173 307.091 30.64 307.091 31.284V34H305.789V28.204H306.965Z" fill="#999999"/>
<rect width="139" height="52" transform="translate(503 4)" fill="#5373FD"/>
<path d="M560.236 28.694C561.244 29.142 561.748 29.8933 561.748 30.948C561.748 31.872 561.459 32.6233 560.88 33.202C560.273 33.8087 559.443 34.112 558.388 34.112C557.949 34.112 557.492 34.07 557.016 33.986C556.643 33.9207 556.269 33.832 555.896 33.72L555.49 33.58V31.06H556.176C556.335 31.06 556.428 31.1393 556.456 31.298C556.475 31.3727 556.498 31.6013 556.526 31.984L556.568 32.6C557.296 32.8613 557.865 32.992 558.276 32.992C558.687 32.992 559.032 32.9453 559.312 32.852C559.583 32.768 559.797 32.642 559.956 32.474C560.311 32.1473 560.488 31.704 560.488 31.144C560.488 30.6027 560.236 30.192 559.732 29.912C559.508 29.772 559.256 29.66 558.976 29.576C557.977 29.268 557.389 29.072 557.212 28.988C556.941 28.8667 556.685 28.6987 556.442 28.484C555.947 28.0453 555.7 27.42 555.7 26.608C555.7 25.8707 555.966 25.236 556.498 24.704C557.077 24.144 557.823 23.864 558.738 23.864C559.709 23.864 560.647 24.0507 561.552 24.424V26.734H560.88C560.712 26.734 560.614 26.6547 560.586 26.496C560.586 26.468 560.577 26.3747 560.558 26.216C560.549 26.048 560.525 25.726 560.488 25.25C559.835 25.0727 559.284 24.984 558.836 24.984C558.229 24.984 557.763 25.1333 557.436 25.432C557.119 25.7213 556.96 26.0947 556.96 26.552C556.96 27.0467 557.212 27.434 557.716 27.714C557.921 27.8447 558.183 27.9613 558.5 28.064C559.34 28.344 559.928 28.554 560.264 28.694H560.236ZM571.154 26.398H570.482C570.314 26.398 570.216 26.3187 570.188 26.16L570.09 25.082H566.338V28.414H570.034V29.478H566.338V32.908H570.09L570.174 31.9C570.202 31.7507 570.305 31.676 570.482 31.676H571.154V34H563.958V33.412C563.958 33.2627 564.028 33.174 564.168 33.146L564.966 32.992V24.998C564.518 24.914 564.252 24.858 564.168 24.83C564.028 24.802 563.958 24.7133 563.958 24.564V23.976H571.154V26.398ZM583.389 33.216C583.51 33.244 583.571 33.3187 583.571 33.44V34H580.687V33.44C580.687 33.3187 580.752 33.244 580.883 33.216L581.457 33.048L580.673 31.032H576.347L575.563 33.048L576.137 33.216C576.258 33.244 576.319 33.3187 576.319 33.44V34H573.449V33.44C573.449 33.3187 573.509 33.244 573.631 33.216L574.191 33.048L577.831 23.976H579.203L582.829 33.048L583.389 33.216ZM578.811 26.202C578.736 26.0153 578.633 25.698 578.503 25.25C578.391 25.6793 578.297 25.9967 578.223 26.202L576.725 30.052H580.295L578.811 26.202ZM594.091 33.132C594.157 33.1507 594.208 33.1833 594.245 33.23C594.283 33.2673 594.301 33.3187 594.301 33.384V34H592.845C592.603 34 592.425 33.902 592.313 33.706L589.709 30.122C589.644 30.0287 589.56 29.9493 589.457 29.884C589.373 29.828 589.233 29.8 589.037 29.8H588.141V32.964L588.925 33.132C588.991 33.1507 589.042 33.1833 589.079 33.23C589.126 33.2673 589.149 33.3187 589.149 33.384V33.986H585.775V33.384C585.775 33.3187 585.794 33.2673 585.831 33.23C585.869 33.1833 585.92 33.1507 585.985 33.132L586.797 32.964V24.984L585.985 24.816C585.92 24.7973 585.869 24.7693 585.831 24.732C585.794 24.6853 585.775 24.6293 585.775 24.564V23.948H589.485C590.111 23.948 590.661 24.0133 591.137 24.144C591.604 24.2747 591.987 24.4613 592.285 24.704C592.593 24.956 592.817 25.25 592.957 25.586C593.097 25.922 593.167 26.3093 593.167 26.748C593.167 27.0933 593.111 27.42 592.999 27.728C592.887 28.0267 592.724 28.3067 592.509 28.568C592.295 28.8293 592.038 29.0393 591.739 29.198C591.366 29.4033 591.021 29.5387 590.703 29.604C590.871 29.7067 591.021 29.8467 591.151 30.024L593.321 32.992C593.769 33.0667 594.031 33.1133 594.105 33.132H594.091ZM589.401 28.82C589.812 28.82 590.162 28.7733 590.451 28.68C590.731 28.5867 590.983 28.4467 591.207 28.26C591.413 28.0827 591.567 27.8773 591.669 27.644C591.772 27.4107 591.823 27.14 591.823 26.832C591.823 26.244 591.627 25.796 591.235 25.488C590.853 25.1893 590.269 25.04 589.485 25.04H588.127V28.82H589.401ZM604.262 26.916H603.59C603.413 26.916 603.31 26.832 603.282 26.664L603.17 25.404C602.386 25.152 601.682 25.026 601.056 25.026C600.002 25.026 599.134 25.3807 598.452 26.09C597.771 26.8273 597.43 27.7933 597.43 28.988C597.43 29.7627 597.57 30.4487 597.85 31.046C598.14 31.6433 598.546 32.11 599.068 32.446C599.6 32.7727 600.216 32.936 600.916 32.936C601.458 32.936 601.929 32.8707 602.33 32.74C602.741 32.6 603.124 32.3667 603.478 32.04C603.562 31.9653 603.646 31.928 603.73 31.928C603.805 31.928 603.87 31.956 603.926 32.012L604.458 32.6C603.59 33.608 602.386 34.112 600.846 34.112C599.876 34.112 599.026 33.8927 598.298 33.454C597.58 33.006 597.024 32.3947 596.632 31.62C596.25 30.8453 596.058 29.968 596.058 28.988C596.058 27.4853 596.525 26.2533 597.458 25.292C598.382 24.34 599.647 23.864 601.252 23.864C601.999 23.864 603.002 24.0973 604.262 24.564V26.916ZM615.641 32.978L616.481 33.146C616.593 33.174 616.649 33.258 616.649 33.398V34H613.261V33.398C613.261 33.2487 613.336 33.16 613.485 33.132L614.269 32.978V29.436H608.865V32.978C609.537 33.118 609.873 33.258 609.873 33.398V34H606.499V33.398C606.499 33.2487 606.569 33.16 606.709 33.132L607.507 32.978V24.984L606.667 24.816C606.555 24.788 606.499 24.704 606.499 24.564V23.976H609.873V24.564C609.873 24.704 609.826 24.788 609.733 24.816C609.63 24.844 609.346 24.9 608.879 24.984V28.442H614.283V24.984L613.443 24.816C613.331 24.788 613.275 24.704 613.275 24.564V23.976H616.663V24.564C616.663 24.7133 616.593 24.802 616.453 24.83L615.641 24.984V32.978Z" fill="white"/>
<g clip-path="url(#clip0_1_159)">
<path d="M542.782 35.833L539.667 32.7177C539.526 32.5771 539.335 32.499 539.135 32.499H538.626C539.488 31.396 540.001 30.0086 540.001 28.4994C540.001 24.9091 537.091 22 533.5 22C529.91 22 527 24.9091 527 28.4994C527 32.0896 529.91 34.9987 533.5 34.9987C535.01 34.9987 536.398 34.4863 537.501 33.6239V34.1332C537.501 34.3332 537.579 34.5238 537.72 34.6644L540.835 37.7797C541.129 38.0734 541.604 38.0734 541.895 37.7797L542.779 36.8954C543.073 36.6017 543.073 36.1267 542.782 35.833ZM533.5 32.499C531.291 32.499 529.5 30.7116 529.5 28.4994C529.5 26.2902 531.288 24.4998 533.5 24.4998C535.71 24.4998 537.501 26.2871 537.501 28.4994C537.501 30.7085 535.713 32.499 533.5 32.499Z" fill="white"/>
</g>
<defs>
<clipPath id="clip0_1_159">
<rect width="16" height="16" fill="white" transform="translate(527 22)"/>
</clipPath>
</defs>
</svg>
